# xmcd
#
# Track frame offsets:
#	150
#	10990
#	24702
#	35938
#	54990
#	73931
#	94450
#	109610
#	130477
#	142365
#	151343
#	166525
#	177636
#
# Disc length: 2548 seconds
#
# Revision: 0
# Processed by: cddbd v1.5.2PL0 Copyright (c) Steve Scherf et al.
# Submitted via: EasyCDDAExtractor 15.2.0.1
#
DISCID=c009f20d
DTITLE=Howard Fishman - Better Get Right
DYEAR=2010
DGENRE=
TTITLE0=I'm So Glad
TTITLE1=Since You've Been Gone
TTITLE2=(Take Me Back To) New Orleans
TTITLE3=Mexican Radio
TTITLE4=Tee Na Na
TTITLE5=La Danse De Mardi Gras
TTITLE6=When I Die
TTITLE7=Down By The Riverside
TTITLE8=Yeah You're Right!
TTITLE9=Lift Me Up
TTITLE10=We Shall Not Be Moved
TTITLE11=Good Times
TTITLE12=Judgment Day
EXTD=
EXTT0=
EXTT1=
EXTT2=
EXTT3=
EXTT4=
EXTT5=
EXTT6=
EXTT7=
EXTT8=
EXTT9=
EXTT10=
EXTT11=
EXTT12=
PLAYORDER=
